<mxfile host="app.diagrams.net" agent="Mozilla/5.0 (Macintosh; Intel Mac OS X 10_15_7) AppleWebKit/537.36 (KHTML, like Gecko) Chrome/141.0.0.0 Safari/537.36" version="28.2.8">
  <diagram name="페이지-1" id="25WP1_fd7J1cwdtx8Or1">
    <mxGraphModel dx="1203" dy="1277" grid="1" gridSize="10" guides="1" tooltips="1" connect="1" arrows="1" fold="1" page="1" pageScale="1" pageWidth="827" pageHeight="1169" math="0" shadow="0">
      <root>
        <mxCell id="0" />
        <mxCell id="1" parent="0" />
        <mxCell id="aMcZZvX24LN74UGp-i6H-1" value="&lt;font style=&quot;font-size: 21px;&quot;&gt;시작&lt;/font&gt;" style="rounded=1;whiteSpace=wrap;html=1;perimeterSpacing=0;" vertex="1" parent="1">
          <mxGeometry x="655" y="120" width="130" height="60" as="geometry" />
        </mxCell>
        <mxCell id="aMcZZvX24LN74UGp-i6H-2" value="5~12살 자녀 및 반려동물이 있는 30~40대 맞벌이 아내." style="text;html=1;whiteSpace=wrap;strokeColor=none;fillColor=none;align=center;verticalAlign=middle;rounded=0;" vertex="1" parent="1">
          <mxGeometry x="627.5" y="180" width="160" height="30" as="geometry" />
        </mxCell>
        <mxCell id="aMcZZvX24LN74UGp-i6H-3" value="&lt;font style=&quot;font-size: 21px;&quot;&gt;메뉴 상세 확인&lt;/font&gt;&lt;div&gt;&lt;span style=&quot;font-size: 21px;&quot;&gt;(메뉴종류)&lt;/span&gt;&lt;/div&gt;" style="rounded=1;whiteSpace=wrap;html=1;perimeterSpacing=0;" vertex="1" parent="1">
          <mxGeometry x="570.25" y="370" width="302.5" height="70" as="geometry" />
        </mxCell>
        <mxCell id="aMcZZvX24LN74UGp-i6H-4" style="edgeStyle=orthogonalEdgeStyle;rounded=0;orthogonalLoop=1;jettySize=auto;html=1;entryX=0.5;entryY=0;entryDx=0;entryDy=0;" edge="1" parent="1" source="aMcZZvX24LN74UGp-i6H-5" target="aMcZZvX24LN74UGp-i6H-13">
          <mxGeometry relative="1" as="geometry" />
        </mxCell>
        <mxCell id="aMcZZvX24LN74UGp-i6H-5" value="&lt;font style=&quot;font-size: 21px;&quot;&gt;앱 진입&lt;/font&gt;" style="rounded=1;whiteSpace=wrap;html=1;perimeterSpacing=0;" vertex="1" parent="1">
          <mxGeometry x="655" y="230" width="130" height="60" as="geometry" />
        </mxCell>
        <mxCell id="aMcZZvX24LN74UGp-i6H-6" style="edgeStyle=orthogonalEdgeStyle;rounded=0;orthogonalLoop=1;jettySize=auto;html=1;exitX=0.5;exitY=1;exitDx=0;exitDy=0;entryX=0.5;entryY=0;entryDx=0;entryDy=0;" edge="1" parent="1" source="aMcZZvX24LN74UGp-i6H-7" target="aMcZZvX24LN74UGp-i6H-9">
          <mxGeometry relative="1" as="geometry" />
        </mxCell>
        <mxCell id="aMcZZvX24LN74UGp-i6H-7" value="&lt;font style=&quot;font-size: 21px;&quot;&gt;주문 결정 및 결제&lt;/font&gt;" style="rounded=1;whiteSpace=wrap;html=1;perimeterSpacing=0;" vertex="1" parent="1">
          <mxGeometry x="620" y="970" width="130" height="60" as="geometry" />
        </mxCell>
        <mxCell id="aMcZZvX24LN74UGp-i6H-8" value="" style="edgeStyle=orthogonalEdgeStyle;rounded=0;orthogonalLoop=1;jettySize=auto;html=1;" edge="1" parent="1" source="aMcZZvX24LN74UGp-i6H-9" target="aMcZZvX24LN74UGp-i6H-11">
          <mxGeometry relative="1" as="geometry" />
        </mxCell>
        <mxCell id="aMcZZvX24LN74UGp-i6H-9" value="&lt;font style=&quot;font-size: 21px;&quot;&gt;배달 수령 및 식사 후&lt;/font&gt;" style="rounded=1;whiteSpace=wrap;html=1;perimeterSpacing=0;" vertex="1" parent="1">
          <mxGeometry x="656.5" y="1130" width="130" height="60" as="geometry" />
        </mxCell>
        <mxCell id="aMcZZvX24LN74UGp-i6H-10" value="" style="edgeStyle=orthogonalEdgeStyle;rounded=0;orthogonalLoop=1;jettySize=auto;html=1;" edge="1" parent="1" source="aMcZZvX24LN74UGp-i6H-11" target="aMcZZvX24LN74UGp-i6H-12">
          <mxGeometry relative="1" as="geometry" />
        </mxCell>
        <mxCell id="aMcZZvX24LN74UGp-i6H-11" value="&lt;font style=&quot;font-size: 20px;&quot;&gt;리뷰 남기기&lt;/font&gt;" style="rhombus;whiteSpace=wrap;html=1;rounded=1;" vertex="1" parent="1">
          <mxGeometry x="634" y="1210" width="185" height="80" as="geometry" />
        </mxCell>
        <mxCell id="aMcZZvX24LN74UGp-i6H-12" value="&lt;font style=&quot;font-size: 21px;&quot;&gt;끝&lt;/font&gt;" style="whiteSpace=wrap;html=1;rounded=1;" vertex="1" parent="1">
          <mxGeometry x="661.5" y="1320" width="120" height="60" as="geometry" />
        </mxCell>
        <mxCell id="aMcZZvX24LN74UGp-i6H-13" value="&lt;span style=&quot;font-size: 21px;&quot;&gt;메뉴 고민&lt;/span&gt;" style="rhombus;whiteSpace=wrap;html=1;rounded=1;" vertex="1" parent="1">
          <mxGeometry x="627.5" y="290" width="185" height="70" as="geometry" />
        </mxCell>
        <mxCell id="aMcZZvX24LN74UGp-i6H-14" value="&lt;font style=&quot;font-size: 21px;&quot;&gt;옵션 확인&lt;/font&gt;&lt;div&gt;&lt;font style=&quot;font-size: 21px;&quot;&gt;(알러지, 간 세기, 재료)&lt;/font&gt;&lt;/div&gt;" style="rounded=1;whiteSpace=wrap;html=1;perimeterSpacing=0;" vertex="1" parent="1">
          <mxGeometry x="562.5" y="457" width="290" height="76" as="geometry" />
        </mxCell>
        <mxCell id="aMcZZvX24LN74UGp-i6H-15" style="edgeStyle=orthogonalEdgeStyle;rounded=0;orthogonalLoop=1;jettySize=auto;html=1;exitX=0.5;exitY=1;exitDx=0;exitDy=0;entryX=0.5;entryY=0;entryDx=0;entryDy=0;" edge="1" parent="1" source="aMcZZvX24LN74UGp-i6H-16" target="aMcZZvX24LN74UGp-i6H-7">
          <mxGeometry relative="1" as="geometry" />
        </mxCell>
        <mxCell id="aMcZZvX24LN74UGp-i6H-16" value="&lt;span style=&quot;font-size: 21px;&quot;&gt;시간예약&lt;/span&gt;" style="rounded=1;whiteSpace=wrap;html=1;perimeterSpacing=0;" vertex="1" parent="1">
          <mxGeometry x="800" y="930" width="160" height="46" as="geometry" />
        </mxCell>
        <mxCell id="aMcZZvX24LN74UGp-i6H-17" value="&lt;font style=&quot;font-size: 20px;&quot;&gt;영양 정보 확인&lt;/font&gt;&lt;div&gt;&lt;font style=&quot;font-size: 20px;&quot;&gt;(과체중용, 저체중용, 당뇨용)&lt;/font&gt;&lt;/div&gt;" style="rounded=1;whiteSpace=wrap;html=1;perimeterSpacing=0;" vertex="1" parent="1">
          <mxGeometry x="570.25" y="564" width="290" height="76" as="geometry" />
        </mxCell>
        <mxCell id="aMcZZvX24LN74UGp-i6H-18" style="edgeStyle=orthogonalEdgeStyle;rounded=0;orthogonalLoop=1;jettySize=auto;html=1;entryX=0.5;entryY=0;entryDx=0;entryDy=0;" edge="1" parent="1" source="aMcZZvX24LN74UGp-i6H-19" target="aMcZZvX24LN74UGp-i6H-22">
          <mxGeometry relative="1" as="geometry" />
        </mxCell>
        <mxCell id="aMcZZvX24LN74UGp-i6H-19" value="&lt;span style=&quot;font-size: 21px;&quot;&gt;가게 선택&lt;/span&gt;" style="rounded=1;whiteSpace=wrap;html=1;perimeterSpacing=0;" vertex="1" parent="1">
          <mxGeometry x="570.25" y="670" width="290" height="76" as="geometry" />
        </mxCell>
        <mxCell id="aMcZZvX24LN74UGp-i6H-20" style="edgeStyle=orthogonalEdgeStyle;rounded=0;orthogonalLoop=1;jettySize=auto;html=1;entryX=0.5;entryY=0;entryDx=0;entryDy=0;" edge="1" parent="1" source="aMcZZvX24LN74UGp-i6H-22" target="aMcZZvX24LN74UGp-i6H-7">
          <mxGeometry relative="1" as="geometry">
            <mxPoint x="727.75" y="1030" as="targetPoint" />
          </mxGeometry>
        </mxCell>
        <mxCell id="aMcZZvX24LN74UGp-i6H-21" style="edgeStyle=orthogonalEdgeStyle;rounded=0;orthogonalLoop=1;jettySize=auto;html=1;" edge="1" parent="1" source="aMcZZvX24LN74UGp-i6H-22" target="aMcZZvX24LN74UGp-i6H-16">
          <mxGeometry relative="1" as="geometry" />
        </mxCell>
        <mxCell id="aMcZZvX24LN74UGp-i6H-22" value="&lt;span style=&quot;font-size: 21px;&quot;&gt;예약여부&lt;/span&gt;" style="rhombus;whiteSpace=wrap;html=1;rounded=1;" vertex="1" parent="1">
          <mxGeometry x="635.25" y="800" width="185" height="70" as="geometry" />
        </mxCell>
        <mxCell id="aMcZZvX24LN74UGp-i6H-23" value="YES" style="text;html=1;whiteSpace=wrap;strokeColor=none;fillColor=none;align=center;verticalAlign=middle;rounded=0;" vertex="1" parent="1">
          <mxGeometry x="810" y="870" width="60" height="30" as="geometry" />
        </mxCell>
        <mxCell id="aMcZZvX24LN74UGp-i6H-24" value="NO" style="text;html=1;whiteSpace=wrap;strokeColor=none;fillColor=none;align=center;verticalAlign=middle;rounded=0;" vertex="1" parent="1">
          <mxGeometry x="635.25" y="910" width="60" height="30" as="geometry" />
        </mxCell>
        <mxCell id="aMcZZvX24LN74UGp-i6H-25" value="&lt;span style=&quot;font-size: 21px;&quot;&gt;재료 필터링기능?&lt;/span&gt;" style="rounded=1;whiteSpace=wrap;html=1;perimeterSpacing=0;" vertex="1" parent="1">
          <mxGeometry x="220" y="414" width="290" height="76" as="geometry" />
        </mxCell>
      </root>
    </mxGraphModel>
  </diagram>
</mxfile>
